<svg xmlns="http://www.w3.org/2000/svg" xmlns:xlink="http://www.w3.org/1999/xlink" xmlns:lucid="lucid" width="1295.6" height="713.21"><g transform="translate(1504.0301516420304 16.973642544146063)" lucid:page-tab-id="0_0"><path d="M-2000-500H0v1500h-2000z" fill="#f2f3f5"/><path d="M-1049.93-9.97a6 6 0 0 1 6-6h367.28a6 6 0 0 1 6 6V119.5a6 6 0 0 1-6 6h-367.28a6 6 0 0 1-6-6z" stroke="#000" stroke-width="2" fill="#c3f7c8"/><use xlink:href="#a" transform="matrix(1,0,0,1,-1030.964100924316,-8.899874260431776) translate(81.44162326388889 74.13888888888889)"/><use xlink:href="#b" transform="matrix(1,0,0,1,-1030.964100924316,-8.899874260431776) translate(175.033203125 74.13888888888889)"/><path d="M-1422.94 265.77a6 6 0 0 1 6-6h310.08a6 6 0 0 1 6 6v129.48a6 6 0 0 1-6 6h-310.08a6 6 0 0 1-6-6z" stroke="#000" stroke-width="2" fill="#fe7070"/><use xlink:href="#c" transform="matrix(1,0,0,1,-1406.8369666464014,266.8466205750091) translate(29.87521701388887 74.13888888888889)"/><use xlink:href="#d" transform="matrix(1,0,0,1,-1406.8369666464014,266.8466205750091) translate(129.77105034722223 74.13888888888889)"/><path d="M-1020.58 265.77a6 6 0 0 1 6-6h326.64a6 6 0 0 1 6 6v129.48a6 6 0 0 1-6 6h-326.64a6 6 0 0 1-6-6z" stroke="#000" stroke-width="2" fill="#fe7070"/><use xlink:href="#e" transform="matrix(1,0,0,1,-1003.6473148925259,266.8466205750091) translate(20.6499565972222 74.13888888888889)"/><use xlink:href="#d" transform="matrix(1,0,0,1,-1003.6473148925259,266.8466205750091) translate(153.99631076388889 74.13888888888889)"/><path d="M-592.8 271.16a6 6 0 0 1 6-6h281.5a6 6 0 0 1 6 6v130.98a6 6 0 0 1-6 6h-281.5a6 6 0 0 1-6-6z" stroke="#000" stroke-width="2" fill="#fe7070"/><use xlink:href="#f" transform="matrix(1,0,0,1,-578.1118030122587,272.30556055134036) translate(9.286024305555543 74.48263888888889)"/><use xlink:href="#d" transform="matrix(1,0,0,1,-578.1118030122587,272.30556055134036) translate(125.36024305555554 74.48263888888889)"/><path d="M-1503.03 581.24a6 6 0 0 1 6-6h191.18a6 6 0 0 1 6 6v108a6 6 0 0 1-6 6h-191.18a6 6 0 0 1-6-6z" stroke="#000" stroke-width="2" fill="#9391ff"/><use xlink:href="#g" transform="matrix(1,0,0,1,-1492.8710163409514,581.2386679033158) translate(11.481553819444443 63.88888888888889)"/><use xlink:href="#h" transform="matrix(1,0,0,1,-1492.8710163409514,581.2386679033158) translate(80.37261284722221 63.88888888888889)"/><path d="M-1253.1 578.23a6 6 0 0 1 6-6h191.17a6 6 0 0 1 6 6v108a6 6 0 0 1-6 6h-191.18a6 6 0 0 1-6-6z" stroke="#000" stroke-width="2" fill="#9391ff"/><use xlink:href="#i" transform="matrix(1,0,0,1,-1242.9513908734987,578.2285537400331) translate(36.827690972222214 63.88888888888889)"/><path d="M-952.85 584.25a6 6 0 0 1 6-6h191.18a6 6 0 0 1 6 6v101.98a6 6 0 0 1-6 6h-191.18a6 6 0 0 1-6-6z" stroke="#000" stroke-width="2" fill="#9391ff"/><use xlink:href="#j" transform="matrix(1,0,0,1,-942.6925030860516,583.9477706502702) translate(50.32486979166666 39.79513888888889)"/><use xlink:href="#k" transform="matrix(1,0,0,1,-942.6925030860516,583.9477706502702) translate(5.7925347222222285 84.9670138888889)"/><path d="M-659 575.7a6 6 0 0 1 6-6h191.17a6 6 0 0 1 6 6v101.98a6 6 0 0 1-6 6H-653a6 6 0 0 1-6-6z" stroke="#000" stroke-width="2" fill="#9391ff"/><use xlink:href="#l" transform="matrix(1,0,0,1,-648.8494858494016,575.3948340636593) translate(45.92708333333333 39.79513888888889)"/><use xlink:href="#m" transform="matrix(1,0,0,1,-648.8494858494016,575.3948340636593) translate(37.837890625 84.9670138888889)"/><path d="M-412.62 575.7a6 6 0 0 1 6-6h191.2a6 6 0 0 1 6 6v101.98a6 6 0 0 1-6 6h-191.2a6 6 0 0 1-6-6z" stroke="#000" stroke-width="2" fill="#9391ff"/><use xlink:href="#n" transform="matrix(1,0,0,1,-402.45716069180276,575.3948340636593) translate(29.201822916666657 39.79513888888889)"/><use xlink:href="#m" transform="matrix(1,0,0,1,-402.45716069180276,575.3948340636593) translate(37.837890625 84.9670138888889)"/><path d="M-1260.5 258.22l317.64-125.3" stroke="#3a414a" stroke-width="3" fill="none"/><path d="M-1260.25 258.77h-4.88l-.1-.27 4.22-1.66z" stroke="#3a414a" stroke-width=".05" fill="#3a414a"/><path d="M-929.38 127.6l-9.34 11.75-5.5-13.96z" stroke="#3a414a" stroke-width="3" fill="#3a414a"/><path d="M-851.26 257.27V144" stroke="#3a414a" stroke-width="3" fill="none"/><path d="M-849.8 258.77h-2.94v-1.54h2.96z" stroke="#3a414a" stroke-width=".05" fill="#3a414a"/><path d="M-851.26 129.5l7.5 13h-15z" stroke="#3a414a" stroke-width="3" fill="#3a414a"/><path d="M-428.57 263.62L-768.8 132.78" stroke="#3a414a" stroke-width="3" fill="none"/><path d="M-423.84 263.86l-.1.3h-4.88l.75-1.93z" stroke="#3a414a" stroke-width=".05" fill="#3a414a"/><path d="M-782.32 127.58l14.82-2.34-5.38 14z" stroke="#3a414a" stroke-width="3" fill="#3a414a"/><path d="M-1400.5 573.07l127.58-157.24" stroke="#3a414a" stroke-width="3" fill="none"/><path d="M-1399.32 573.97l-.22.27h-3.8l1.72-2.13z" stroke="#3a414a" stroke-width=".05" fill="#3a414a"/><path d="M-1263.8 404.58l-2.35 14.8-11.65-9.44z" stroke="#3a414a" stroke-width="3" fill="#3a414a"/><path d="M-1152.15 569.87l-70.7-151.77" stroke="#3a414a" stroke-width="3" fill="none"/><path d="M-1149.9 571.23h-3.25l-.36-.77 2.67-1.25z" stroke="#3a414a" stroke-width=".05" fill="#3a414a"/><path d="M-1228.95 404.97l12.28 8.6-13.6 6.34z" stroke="#3a414a" stroke-width="3" fill="#3a414a"/><path d="M-851.26 575.75v-156" stroke="#3a414a" stroke-width="3" fill="none"/><path d="M-849.8 577.25h-2.94v-1.54h2.96z" stroke="#3a414a" stroke-width=".05" fill="#3a414a"/><path d="M-851.26 405.25l7.5 13h-15z" stroke="#3a414a" stroke-width="3" fill="#3a414a"/><path d="M-556.63 567.42l88.8-143.4" stroke="#3a414a" stroke-width="3" fill="none"/><path d="M-555.35 568.16l-.33.54h-3.47l1.3-2.1z" stroke="#3a414a" stroke-width=".05" fill="#3a414a"/><path d="M-460.2 411.7l-.45 14.98-12.75-7.9z" stroke="#3a414a" stroke-width="3" fill="#3a414a"/><path d="M-311.86 567.45l-96.26-143.78" stroke="#3a414a" stroke-width="3" fill="none"/><path d="M-309.25 568.7h-3.55l-.3-.46 2.45-1.64z" stroke="#3a414a" stroke-width=".05" fill="#3a414a"/><path d="M-416.18 411.63l13.46 6.62-12.47 8.35z" stroke="#3a414a" stroke-width="3" fill="#3a414a"/><defs><path d="M600 0L52-1490h200c166 485 304 806 458 1336 156-533 285-846 449-1336h202L819 0H600" id="o"/><path d="M158 0v-1118h180V0H158zm91-1301c-68 0-125-53-125-119s57-119 125-119c69 0 126 53 126 119s-57 119-126 119" id="p"/><path d="M577 24c-279 0-473-224-473-580 0-354 195-576 474-576 218 0 287 134 324 193h14v-551h180V0H922v-173h-20C865-111 790 24 577 24zm27-161c203 0 314-172 314-421 0-247-108-413-314-413-212 0-317 181-317 413 0 235 108 421 317 421" id="q"/><path d="M628 24c-324 0-524-230-524-574 0-343 198-582 503-582 237 0 487 146 487 559v75H286c9 234 145 362 343 362 132 0 231-58 273-172l174 48C1024-91 857 24 628 24zM287-650h624c-17-190-120-322-304-322-192 0-309 151-320 322" id="r"/><path d="M613 24c-304 0-509-231-509-576 0-350 205-580 509-580 305 0 511 230 511 580 0 345-206 576-511 576zm0-161c226 0 329-195 329-415 0-222-103-419-329-419-223 0-326 196-326 419 0 220 103 415 326 415" id="s"/><g id="a"><use transform="matrix(0.015190972222222224,0,0,0.015190972222222224,0,0)" xlink:href="#o"/><use transform="matrix(0.015190972222222224,0,0,0.015190972222222224,21.464843750000004,0)" xlink:href="#p"/><use transform="matrix(0.015190972222222224,0,0,0.015190972222222224,28.99956597222223,0)" xlink:href="#q"/><use transform="matrix(0.015190972222222224,0,0,0.015190972222222224,48.0490451388889,0)" xlink:href="#r"/><use transform="matrix(0.015190972222222224,0,0,0.015190972222222224,66.18706597222223,0)" xlink:href="#s"/></g><path d="M180 0v-1490h908v168H370v486h669v168H370v500h727V0H180" id="t"/><path d="M598-1118v154H368v674c0 100 37 144 132 144 23 0 62-6 92-12L629-6c-37 13-88 20-134 20-193 0-307-107-307-290v-688H20v-154h168v-266h180v266h230" id="u"/><path d="M158 0v-1118h174v172h12c41-113 157-188 290-188 26 0 70 2 91 3v181c-11-2-60-10-108-10-161 0-279 109-279 260V0H158" id="v"/><g id="b"><use transform="matrix(0.015190972222222224,0,0,0.015190972222222224,0,0)" xlink:href="#t"/><use transform="matrix(0.015190972222222224,0,0,0.015190972222222224,18.700086805555557,0)" xlink:href="#q"/><use transform="matrix(0.015190972222222224,0,0,0.015190972222222224,37.74956597222223,0)" xlink:href="#p"/><use transform="matrix(0.015190972222222224,0,0,0.015190972222222224,45.28428819444445,0)" xlink:href="#u"/><use transform="matrix(0.015190972222222224,0,0,0.015190972222222224,55.1584201388889,0)" xlink:href="#s"/><use transform="matrix(0.015190972222222224,0,0,0.015190972222222224,73.81293402777779,0)" xlink:href="#v"/></g><path d="M180 0v-1490h510c348 0 508 209 508 474 0 266-160 477-507 477H370V0H180zm190-706h312c236 0 327-133 327-310 0-176-91-307-329-307H370v617" id="w"/><path d="M338-1490V0H158v-1490h180" id="x"/><path d="M471 26C259 26 90-98 90-318c0-256 228-303 435-329 202-27 287-16 287-108 0-139-79-219-234-219-161 0-248 86-283 164l-173-57c86-203 278-265 451-265 150 0 419 46 419 395V0H815v-152h-12C765-73 660 26 471 26zm31-159c199 0 310-134 310-271v-155c-30 35-226 55-295 64-131 17-246 59-246 186 0 116 97 176 231 176" id="y"/><path d="M140 405l46-156c120 36 205 19 263-150l32-93L54-1118h197c107 313 237 620 324 950 87-331 219-637 326-950h196L606 167c-68 178-176 259-334 259-64 0-113-12-132-21" id="z"/><g id="c"><use transform="matrix(0.015190972222222224,0,0,0.015190972222222224,0,0)" xlink:href="#w"/><use transform="matrix(0.015190972222222224,0,0,0.015190972222222224,19.869791666666668,0)" xlink:href="#x"/><use transform="matrix(0.015190972222222224,0,0,0.015190972222222224,27.404513888888893,0)" xlink:href="#y"/><use transform="matrix(0.015190972222222224,0,0,0.015190972222222224,44.418402777777786,0)" xlink:href="#z"/><use transform="matrix(0.015190972222222224,0,0,0.015190972222222224,61.29557291666668,0)" xlink:href="#r"/><use transform="matrix(0.015190972222222224,0,0,0.015190972222222224,79.43359375000001,0)" xlink:href="#v"/></g><path d="M180 0v-1490h270l367 940c28 72 75 218 110 339 35-117 81-264 110-339l362-940h271V0h-187c2-448-5-837 7-1287-157 497-311 829-483 1287H842C666-458 514-784 354-1284c12 438 5 843 7 1284H180" id="A"/><path d="M338-670V0H158v-1118h173l1 207c72-158 192-221 342-221 226 0 378 139 378 422V0H872v-695c0-172-96-275-252-275-161 0-282 109-282 300" id="B"/><path d="M611 442c-248 0-391-105-460-228l146-94c47 65 117 165 314 165 178 0 307-82 307-266v-224h-17C863-141 792-18 576-18c-268 0-472-195-472-546 0-346 197-568 476-568 216 0 288 133 326 193h17v-179h175V29c0 289-215 413-487 413zm-5-620c203 0 314-146 314-390 0-237-108-403-314-403-213 0-319 180-319 403 0 230 109 390 319 390" id="C"/><g id="d"><use transform="matrix(0.015190972222222224,0,0,0.015190972222222224,0,0)" xlink:href="#A"/><use transform="matrix(0.015190972222222224,0,0,0.015190972222222224,28.103298611111114,0)" xlink:href="#y"/><use transform="matrix(0.015190972222222224,0,0,0.015190972222222224,45.57291666666667,0)" xlink:href="#B"/><use transform="matrix(0.015190972222222224,0,0,0.015190972222222224,63.953993055555564,0)" xlink:href="#y"/><use transform="matrix(0.015190972222222224,0,0,0.015190972222222224,81.42361111111111,0)" xlink:href="#C"/><use transform="matrix(0.015190972222222224,0,0,0.015190972222222224,100.50347222222223,0)" xlink:href="#r"/><use transform="matrix(0.015190972222222224,0,0,0.015190972222222224,118.64149305555557,0)" xlink:href="#v"/></g><path d="M98-1322v-168h1126v168H757V0H567v-1322H98" id="D"/><path d="M158 0v-1118h175l1 205c55-151 181-225 313-225 147 0 245 90 285 228 53-141 190-228 352-228 194 0 352 125 352 384V0h-181v-749c0-161-105-225-225-225-151 0-243 103-243 244V0H807v-767c0-124-93-207-219-207-131 0-250 92-250 270V0H158" id="E"/><g id="e"><use transform="matrix(0.015190972222222224,0,0,0.015190972222222224,0,0)" xlink:href="#D"/><use transform="matrix(0.015190972222222224,0,0,0.015190972222222224,20.08246527777778,0)" xlink:href="#p"/><use transform="matrix(0.015190972222222224,0,0,0.015190972222222224,27.6171875,0)" xlink:href="#E"/><use transform="matrix(0.015190972222222224,0,0,0.015190972222222224,54.86979166666667,0)" xlink:href="#r"/><use transform="matrix(0.015190972222222224,0,0,0.015190972222222224,73.0078125,0)" xlink:href="#x"/><use transform="matrix(0.015190972222222224,0,0,0.015190972222222224,80.54253472222223,0)" xlink:href="#p"/><use transform="matrix(0.015190972222222224,0,0,0.015190972222222224,88.07725694444446,0)" xlink:href="#B"/><use transform="matrix(0.015190972222222224,0,0,0.015190972222222224,106.45833333333334,0)" xlink:href="#r"/></g><path d="M783 20c-382 0-661-292-661-764 0-473 279-766 661-766 302 0 548 182 601 489h-190c-42-204-217-313-411-313-268 0-476 208-476 590 0 381 209 588 476 588 195 0 369-110 411-313h190c-52 303-296 489-601 489" id="F"/><g id="f"><use transform="matrix(0.015190972222222224,0,0,0.015190972222222224,0,0)" xlink:href="#F"/><use transform="matrix(0.015190972222222224,0,0,0.015190972222222224,22.725694444444446,0)" xlink:href="#s"/><use transform="matrix(0.015190972222222224,0,0,0.015190972222222224,41.380208333333336,0)" xlink:href="#B"/><use transform="matrix(0.015190972222222224,0,0,0.015190972222222224,59.76128472222223,0)" xlink:href="#u"/><use transform="matrix(0.015190972222222224,0,0,0.015190972222222224,69.93923611111111,0)" xlink:href="#v"/><use transform="matrix(0.015190972222222224,0,0,0.015190972222222224,81.13498263888889,0)" xlink:href="#s"/><use transform="matrix(0.015190972222222224,0,0,0.015190972222222224,99.78949652777777,0)" xlink:href="#x"/></g><path d="M180 0v-1490h190v1322h690V0H180" id="G"/><path d="M481 0L54-1118h197c107 314 236 620 325 951 87-331 217-637 324-951h197L670 0H481" id="H"/><g id="g"><use transform="matrix(0.015190972222222224,0,0,0.015190972222222224,0,0)" xlink:href="#G"/><use transform="matrix(0.015190972222222224,0,0,0.015190972222222224,17.591145833333336,0)" xlink:href="#p"/><use transform="matrix(0.015190972222222224,0,0,0.015190972222222224,25.125868055555557,0)" xlink:href="#H"/><use transform="matrix(0.015190972222222224,0,0,0.015190972222222224,42.00303819444444,0)" xlink:href="#r"/></g><g id="h"><use transform="matrix(0.015190972222222224,0,0,0.015190972222222224,0,0)" xlink:href="#w"/><use transform="matrix(0.015190972222222224,0,0,0.015190972222222224,19.869791666666668,0)" xlink:href="#x"/><use transform="matrix(0.015190972222222224,0,0,0.015190972222222224,27.404513888888893,0)" xlink:href="#y"/><use transform="matrix(0.015190972222222224,0,0,0.015190972222222224,44.418402777777786,0)" xlink:href="#z"/><use transform="matrix(0.015190972222222224,0,0,0.015190972222222224,61.29557291666668,0)" xlink:href="#r"/><use transform="matrix(0.015190972222222224,0,0,0.015190972222222224,79.43359375000001,0)" xlink:href="#v"/></g><path d="M538 24C308 24 148-78 108-271l171-41c32 123 123 178 257 178 156 0 256-77 256-169 0-77-54-128-164-154l-186-44c-203-48-300-148-300-305 0-192 176-326 414-326 230 0 351 112 402 269l-163 42c-31-80-94-158-238-158-133 0-233 69-233 162 0 83 57 129 188 160l169 40c203 48 298 149 298 302 0 196-179 339-441 339" id="I"/><g id="i"><use transform="matrix(0.015190972222222224,0,0,0.015190972222222224,0,0)" xlink:href="#F"/><use transform="matrix(0.015190972222222224,0,0,0.015190972222222224,22.725694444444446,0)" xlink:href="#y"/><use transform="matrix(0.015190972222222224,0,0,0.015190972222222224,40.1953125,0)" xlink:href="#B"/><use transform="matrix(0.015190972222222224,0,0,0.015190972222222224,58.12065972222223,0)" xlink:href="#H"/><use transform="matrix(0.015190972222222224,0,0,0.015190972222222224,75.45355902777779,0)" xlink:href="#y"/><use transform="matrix(0.015190972222222224,0,0,0.015190972222222224,92.92317708333334,0)" xlink:href="#I"/></g><path d="M613 24c-304 0-509-231-509-576 0-350 205-580 509-580 216 0 392 114 453 309l-173 49c-33-115-133-197-280-197-223 0-326 196-326 419 0 220 103 415 326 415 150 0 252-85 285-206l172 49C1010-95 832 24 613 24" id="J"/><path d="M158 0v-1490h180v865h22l478-493h223L593-638 1096 0H865L456-523 338-412V0H158" id="K"/><g id="j"><use transform="matrix(0.015190972222222224,0,0,0.015190972222222224,0,0)" xlink:href="#D"/><use transform="matrix(0.015190972222222224,0,0,0.015190972222222224,18.3203125,0)" xlink:href="#v"/><use transform="matrix(0.015190972222222224,0,0,0.015190972222222224,30.032552083333336,0)" xlink:href="#y"/><use transform="matrix(0.015190972222222224,0,0,0.015190972222222224,47.50217013888889,0)" xlink:href="#J"/><use transform="matrix(0.015190972222222224,0,0,0.015190972222222224,65.2756076388889,0)" xlink:href="#K"/></g><path d="M158 418v-1536h174v179h20c37-59 106-193 324-193 279 0 474 222 474 576 0 356-194 580-473 580-213 0-288-135-325-197h-14v591H158zm492-555c209 0 317-186 317-421 0-232-105-413-317-413-206 0-314 166-314 413 0 249 111 421 314 421" id="L"/><g id="k"><use transform="matrix(0.015190972222222224,0,0,0.015190972222222224,0,0)" xlink:href="#F"/><use transform="matrix(0.015190972222222224,0,0,0.015190972222222224,22.725694444444446,0)" xlink:href="#s"/><use transform="matrix(0.015190972222222224,0,0,0.015190972222222224,41.380208333333336,0)" xlink:href="#E"/><use transform="matrix(0.015190972222222224,0,0,0.015190972222222224,68.6328125,0)" xlink:href="#L"/><use transform="matrix(0.015190972222222224,0,0,0.015190972222222224,87.68229166666667,0)" xlink:href="#s"/><use transform="matrix(0.015190972222222224,0,0,0.015190972222222224,106.33680555555556,0)" xlink:href="#B"/><use transform="matrix(0.015190972222222224,0,0,0.015190972222222224,124.71788194444443,0)" xlink:href="#r"/><use transform="matrix(0.015190972222222224,0,0,0.015190972222222224,142.85590277777777,0)" xlink:href="#B"/><use transform="matrix(0.015190972222222224,0,0,0.015190972222222224,161.23697916666666,0)" xlink:href="#u"/></g><g id="l"><use transform="matrix(0.015190972222222224,0,0,0.015190972222222224,0,0)" xlink:href="#w"/><use transform="matrix(0.015190972222222224,0,0,0.015190972222222224,19.869791666666668,0)" xlink:href="#x"/><use transform="matrix(0.015190972222222224,0,0,0.015190972222222224,27.404513888888893,0)" xlink:href="#y"/><use transform="matrix(0.015190972222222224,0,0,0.015190972222222224,44.418402777777786,0)" xlink:href="#z"/><use transform="matrix(0.015190972222222224,0,0,0.015190972222222224,61.29557291666668,0)" xlink:href="#r"/><use transform="matrix(0.015190972222222224,0,0,0.015190972222222224,79.43359375000001,0)" xlink:href="#v"/></g><g id="m"><use transform="matrix(0.015190972222222224,0,0,0.015190972222222224,0,0)" xlink:href="#F"/><use transform="matrix(0.015190972222222224,0,0,0.015190972222222224,22.725694444444446,0)" xlink:href="#s"/><use transform="matrix(0.015190972222222224,0,0,0.015190972222222224,41.380208333333336,0)" xlink:href="#B"/><use transform="matrix(0.015190972222222224,0,0,0.015190972222222224,59.76128472222223,0)" xlink:href="#u"/><use transform="matrix(0.015190972222222224,0,0,0.015190972222222224,69.93923611111111,0)" xlink:href="#v"/><use transform="matrix(0.015190972222222224,0,0,0.015190972222222224,81.13498263888889,0)" xlink:href="#s"/><use transform="matrix(0.015190972222222224,0,0,0.015190972222222224,99.78949652777777,0)" xlink:href="#x"/></g><g id="n"><use transform="matrix(0.015190972222222224,0,0,0.015190972222222224,0,0)" xlink:href="#D"/><use transform="matrix(0.015190972222222224,0,0,0.015190972222222224,20.08246527777778,0)" xlink:href="#p"/><use transform="matrix(0.015190972222222224,0,0,0.015190972222222224,27.6171875,0)" xlink:href="#E"/><use transform="matrix(0.015190972222222224,0,0,0.015190972222222224,54.86979166666667,0)" xlink:href="#r"/><use transform="matrix(0.015190972222222224,0,0,0.015190972222222224,73.0078125,0)" xlink:href="#x"/><use transform="matrix(0.015190972222222224,0,0,0.015190972222222224,80.54253472222223,0)" xlink:href="#p"/><use transform="matrix(0.015190972222222224,0,0,0.015190972222222224,88.07725694444446,0)" xlink:href="#B"/><use transform="matrix(0.015190972222222224,0,0,0.015190972222222224,106.45833333333334,0)" xlink:href="#r"/></g></defs></g></svg>